<?xml version="1.0" standalone="no"?>
<!DOCTYPE svg PUBLIC "-//W3C//DTD SVG 20010904//EN"
 "http://www.w3.org/TR/2001/REC-SVG-20010904/DTD/svg10.dtd">
<svg version="1.0" xmlns="http://www.w3.org/2000/svg"
 width="640.000000pt" height="1280.000000pt" viewBox="0 0 640.000000 1280.000000"
 preserveAspectRatio="xMidYMid meet">
<metadata>
Created by potrace 1.15, written by Peter Selinger 2001-2017
</metadata>
<g transform="translate(0.000000,1280.000000) scale(0.100000,-0.100000)"
fill="#000000" stroke="none">
<path d="M3080 12777 c-116 -39 -267 -159 -381 -302 -93 -117 -221 -340 -292
-510 -76 -183 -152 -446 -186 -651 -61 -365 -138 -1084 -161 -1509 -6 -115
-14 -234 -18 -263 l-7 -53 -73 233 c-188 599 -203 640 -243 681 -35 36 -39 37
-105 37 -85 0 -123 -20 -152 -82 -17 -36 -219 -660 -309 -953 -13 -45 -28
-128 -33 -190 -6 -65 -10 -1220 -10 -2805 l0 -2695 -196 -194 c-259 -257 -359
-381 -448 -557 -88 -176 -130 -345 -160 -659 -8 -82 -14 -151 -12 -152 2 -2
186 -47 409 -101 l407 -97 0 -512 0 -511 -50 -232 c-27 -127 -50 -236 -50
-241 0 -5 36 -9 80 -9 44 0 80 -2 80 -4 0 -3 -6 -35 -14 -73 -14 -63 -46 -315
-46 -355 0 -17 32 -18 525 -18 l526 0 -6 53 c-15 130 -36 285 -45 322 -18 75
-18 75 58 75 l69 0 -68 252 -69 253 0 378 c0 334 2 377 16 377 14 0 98 -19
357 -82 87 -20 89 -21 83 -47 -3 -14 -12 -57 -20 -96 -20 -94 -36 -267 -36
-393 l0 -104 337 3 337 3 8 -34 c4 -19 19 -91 34 -160 14 -69 30 -129 35 -134
13 -14 25 28 43 159 9 66 19 134 22 151 l6 32 319 7 319 7 0 42 c-1 176 -35
441 -68 527 l-11 27 152 36 c84 20 167 39 185 42 l32 6 0 -375 0 -375 -65
-243 c-36 -134 -65 -247 -65 -251 0 -5 32 -8 71 -8 63 0 70 -2 65 -17 -12 -29
-44 -233 -51 -318 -4 -44 -9 -88 -11 -98 -5 -16 24 -17 520 -17 l526 0 0 28
c0 65 -40 353 -56 405 -5 15 3 17 81 17 47 0 84 3 82 8 -3 4 -28 115 -56 247
l-51 240 2 499 3 500 429 103 c236 56 430 104 432 106 2 1 -4 70 -12 152 -30
314 -72 483 -160 659 -91 180 -189 300 -473 581 l-221 220 0 2700 c0 1740 -4
2731 -10 2788 -10 81 -68 276 -299 998 -34 106 -64 157 -101 176 -32 16 -138
16 -170 0 -55 -28 -51 -18 -283 -746 l-75 -235 -6 110 c-20 340 -29 475 -52
719 -53 582 -113 1026 -173 1271 -155 631 -481 1136 -797 1234 -83 25 -113 25
-194 -3z m310 -11164 c0 -5 -5 -15 -10 -23 -8 -12 -10 -11 -10 8 0 12 5 22 10
22 6 0 10 -3 10 -7z"/>
</g>
</svg>
